# xmcd
#
# Track frame offsets: 
#        150
#        12457
#        26574
#        38848
#        59521
#        78074
#        100565
#        115306
#        138857
#        152105
#
# Disc length: 2274 seconds
#
# Revision: 0
# Processed by: cddbd v1.5.2PL0 Copyright (c) Steve Scherf et al.
# Submitted via: ExactAudioCopy v1.3
#
DISCID=7308e00a
DTITLE=Anni Piper - More Guitars Than Friends
DYEAR=2016
DGENRE=Blues Rock
TTITLE0=Wonder Woman
TTITLE1=Just A Little Bit
TTITLE2=Buckle Bunny
TTITLE3=More Guitars Than Friends
TTITLE4=Paper Bag
TTITLE5=Cold Pizza And Warm Beer
TTITLE6=Shotgun Wedding
TTITLE7=I'm Lost Without You
TTITLE8=Eugene
TTITLE9=Blackberry Brandy
EXTD=
EXTT0=
EXTT1=
EXTT2=
EXTT3=
EXTT4=
EXTT5=
EXTT6=
EXTT7=
EXTT8=
EXTT9=
PLAYORDER=
